<svg xmlns="http://www.w3.org/2000/svg" xmlns:xlink="http://www.w3.org/1999/xlink" width="500" zoomAndPan="magnify" viewBox="0 0 375 374.999991" height="500" preserveAspectRatio="xMidYMid meet" version="1.0"><defs><clipPath id="b1e18f3afe"><path d="M 18.164062 29.203125 L 282 29.203125 L 282 293 L 18.164062 293 Z M 18.164062 29.203125 " clip-rule="nonzero"/></clipPath><clipPath id="5e7de5e957"><path d="M 72 79 L 358.335938 79 L 358.335938 353.191406 L 72 353.191406 Z M 72 79 " clip-rule="nonzero"/></clipPath></defs><g clip-path="url(#b1e18f3afe)"><path fill="#13343b" d="M 149.824219 292.648438 C 77.125 292.648438 18.164062 233.6875 18.164062 160.992188 C 18.164062 88.292969 77.125 29.332031 149.824219 29.332031 C 222.519531 29.328125 281.480469 88.289062 281.480469 160.992188 C 281.480469 185.09375 274.9375 207.707031 263.664062 227.144531 C 229.191406 214.832031 194.722656 202.523438 160.253906 190.277344 C 172.5 221.441406 184.808594 252.605469 197.121094 283.835938 C 182.414062 289.472656 166.472656 292.648438 149.824219 292.648438 " fill-opacity="1" fill-rule="nonzero"/></g><g clip-path="url(#5e7de5e957)"><path fill="#0097b2" d="M 324.695312 352.257812 C 325.929688 350.960938 325.863281 348.886719 324.566406 347.65625 L 280.445312 305.800781 C 279.148438 304.570312 277.074219 304.636719 275.84375 305.929688 L 243.964844 339.558594 L 181.441406 181.078125 L 340.570312 237.835938 L 308.695312 269.972656 C 308.046875 270.621094 307.722656 271.460938 307.785156 272.304688 C 307.785156 273.210938 308.175781 273.988281 308.824219 274.636719 L 352.882812 315.132812 C 354.175781 316.363281 356.25 316.234375 357.480469 314.9375 C 358.714844 313.640625 358.582031 311.566406 357.289062 310.335938 L 315.691406 272.109375 L 348.800781 238.742188 C 349.578125 237.964844 349.902344 236.796875 349.640625 235.761719 C 349.382812 234.660156 348.605469 233.816406 347.570312 233.429688 L 176.90625 172.523438 C 175.738281 172.070312 174.378906 172.394531 173.472656 173.300781 C 172.566406 174.207031 172.304688 175.570312 172.757812 176.734375 L 239.753906 346.621094 C 240.144531 347.65625 241.050781 348.371094 242.152344 348.628906 C 243.253906 348.824219 244.355469 348.5 245.132812 347.65625 L 278.304688 312.667969 L 320.097656 352.257812 C 320.746094 352.839844 321.523438 353.164062 322.300781 353.164062 C 323.207031 353.292969 324.050781 352.96875 324.695312 352.257812 Z M 152.15625 156.585938 C 153.386719 155.289062 153.386719 153.28125 152.089844 151.984375 L 107.058594 108.054688 C 105.761719 106.824219 103.753906 106.824219 102.460938 108.121094 C 101.226562 109.414062 101.226562 111.425781 102.523438 112.71875 L 147.554688 156.648438 C 148.203125 157.234375 148.980469 157.554688 149.824219 157.554688 C 150.664062 157.554688 151.507812 157.234375 152.15625 156.585938 Z M 137.316406 195.980469 C 137.316406 194.164062 135.890625 192.738281 134.078125 192.738281 L 75.503906 192.738281 C 73.691406 192.738281 72.265625 194.164062 72.265625 195.980469 C 72.265625 197.792969 73.691406 199.21875 75.503906 199.21875 L 134.078125 199.21875 C 135.828125 199.21875 137.316406 197.792969 137.316406 195.980469 Z M 188.113281 141.8125 C 186.300781 141.8125 184.875 140.386719 184.875 138.574219 L 184.875 82.265625 C 184.875 80.453125 186.300781 79.023438 188.113281 79.023438 C 189.929688 79.023438 191.355469 80.453125 191.355469 82.265625 L 191.355469 138.574219 C 191.355469 140.320312 189.863281 141.8125 188.113281 141.8125 " fill-opacity="1" fill-rule="nonzero"/></g></svg>