<svg xmlns="http://www.w3.org/2000/svg" xmlns:xlink="http://www.w3.org/1999/xlink" width="500" zoomAndPan="magnify" viewBox="0 0 375 74.999997" height="100" preserveAspectRatio="xMidYMid meet" version="1.0"><defs><g/><clipPath id="4fe3312d56"><path d="M 16.269531 2.574219 L 74 2.574219 L 74 61 L 16.269531 61 Z M 16.269531 2.574219 " clip-rule="nonzero"/></clipPath><clipPath id="a20351d7f5"><path d="M 28.035156 13.378906 L 90.519531 13.378906 L 90.519531 73.472656 L 28.035156 73.472656 Z M 28.035156 13.378906 " clip-rule="nonzero"/></clipPath><clipPath id="f5b7f1444d"><rect x="0" width="234" y="0" height="58"/></clipPath><clipPath id="ac810113b4"><rect x="0" width="264" y="0" height="27"/></clipPath></defs><g clip-path="url(#4fe3312d56)"><path fill="#13343b" d="M 45.078125 60.222656 C 29.171875 60.222656 16.269531 47.320312 16.269531 31.414062 C 16.269531 15.503906 29.171875 2.601562 45.078125 2.601562 C 60.988281 2.601562 73.890625 15.503906 73.890625 31.414062 C 73.890625 36.6875 72.457031 41.636719 69.992188 45.890625 C 62.449219 43.195312 54.90625 40.5 47.363281 37.820312 C 50.042969 44.640625 52.734375 51.460938 55.429688 58.296875 C 52.210938 59.53125 48.722656 60.222656 45.078125 60.222656 " fill-opacity="1" fill-rule="nonzero"/></g><g clip-path="url(#a20351d7f5)"><path fill="#0097b2" d="M 83.347656 73.269531 C 83.617188 72.984375 83.601562 72.53125 83.320312 72.261719 L 73.664062 63.101562 C 73.378906 62.832031 72.925781 62.847656 72.65625 63.132812 L 65.679688 70.488281 L 52 35.808594 L 86.820312 48.230469 L 79.84375 55.261719 C 79.703125 55.402344 79.632812 55.589844 79.644531 55.773438 C 79.644531 55.972656 79.730469 56.140625 79.875 56.28125 L 89.515625 65.144531 C 89.796875 65.414062 90.25 65.386719 90.519531 65.101562 C 90.789062 64.816406 90.761719 64.363281 90.480469 64.09375 L 81.375 55.730469 L 88.621094 48.425781 C 88.792969 48.257812 88.863281 48.003906 88.804688 47.777344 C 88.75 47.535156 88.578125 47.351562 88.351562 47.265625 L 51.003906 33.9375 C 50.75 33.839844 50.453125 33.910156 50.253906 34.105469 C 50.054688 34.304688 50 34.605469 50.097656 34.859375 L 64.757812 72.035156 C 64.84375 72.261719 65.042969 72.417969 65.285156 72.472656 C 65.523438 72.515625 65.765625 72.445312 65.9375 72.261719 L 73.195312 64.605469 L 82.339844 73.269531 C 82.480469 73.394531 82.652344 73.46875 82.820312 73.46875 C 83.019531 73.496094 83.207031 73.425781 83.347656 73.269531 Z M 45.589844 30.449219 C 45.859375 30.164062 45.859375 29.726562 45.574219 29.441406 L 35.722656 19.828125 C 35.4375 19.558594 34.996094 19.558594 34.714844 19.84375 C 34.445312 20.128906 34.445312 20.566406 34.730469 20.851562 L 44.582031 30.464844 C 44.722656 30.589844 44.894531 30.660156 45.078125 30.660156 C 45.261719 30.660156 45.449219 30.589844 45.589844 30.449219 Z M 42.34375 39.070312 C 42.34375 38.671875 42.03125 38.359375 41.632812 38.359375 L 28.816406 38.359375 C 28.417969 38.359375 28.105469 38.671875 28.105469 39.070312 C 28.105469 39.46875 28.417969 39.777344 28.816406 39.777344 L 41.632812 39.777344 C 42.015625 39.777344 42.34375 39.46875 42.34375 39.070312 Z M 53.457031 27.214844 C 53.0625 27.214844 52.75 26.90625 52.75 26.507812 L 52.75 14.1875 C 52.75 13.789062 53.0625 13.476562 53.457031 13.476562 C 53.855469 13.476562 54.167969 13.789062 54.167969 14.1875 L 54.167969 26.507812 C 54.167969 26.890625 53.839844 27.214844 53.457031 27.214844 " fill-opacity="1" fill-rule="nonzero"/></g><g transform="matrix(1, 0, 0, 1, 96, -0.000000000000001893)"><g clip-path="url(#f5b7f1444d)"><g fill="#13343b" fill-opacity="1"><g transform="translate(0.129433, 44.351627)"><g><path d="M 10.953125 0 L 3.515625 0 L 3.515625 -39.40625 L 11.875 -39.40625 L 28.046875 -11.203125 L 28.046875 -39.40625 L 35.484375 -39.40625 L 35.484375 0 L 27.0625 0 L 10.953125 -28.25 Z M 10.953125 0 "/></g></g></g><g fill="#13343b" fill-opacity="1"><g transform="translate(39.124919, 44.351627)"><g><path d="M 16.734375 0.5625 C 13.773438 0.5625 11.179688 -0.0820312 8.953125 -1.375 C 6.734375 -2.664062 5.015625 -4.425781 3.796875 -6.65625 C 2.578125 -8.894531 1.96875 -11.445312 1.96875 -14.3125 C 1.96875 -16.207031 2.257812 -18.066406 2.84375 -19.890625 C 3.425781 -21.710938 4.316406 -23.351562 5.515625 -24.8125 C 6.722656 -26.28125 8.238281 -27.441406 10.0625 -28.296875 C 11.894531 -29.160156 14.050781 -29.59375 16.53125 -29.59375 C 18.382812 -29.59375 20.179688 -29.300781 21.921875 -28.71875 C 23.660156 -28.132812 25.21875 -27.226562 26.59375 -26 C 27.976562 -24.78125 29.070312 -23.222656 29.875 -21.328125 C 30.6875 -19.441406 31.09375 -17.1875 31.09375 -14.5625 L 31.09375 -13.0625 L 9.1875 -13.0625 C 9.257812 -12.445312 9.398438 -11.835938 9.609375 -11.234375 C 9.816406 -10.628906 10.039062 -10.101562 10.28125 -9.65625 C 10.96875 -8.3125 11.890625 -7.269531 13.046875 -6.53125 C 14.203125 -5.789062 15.519531 -5.421875 17 -5.421875 C 18.644531 -5.421875 20.023438 -5.847656 21.140625 -6.703125 C 22.265625 -7.566406 23.050781 -8.585938 23.5 -9.765625 L 30.625 -9.765625 C 30.082031 -7.898438 29.207031 -6.179688 28 -4.609375 C 26.789062 -3.046875 25.253906 -1.789062 23.390625 -0.84375 C 21.535156 0.09375 19.316406 0.5625 16.734375 0.5625 Z M 9.5 -18.28125 L 23.96875 -18.28125 C 23.9375 -18.664062 23.84375 -19.097656 23.6875 -19.578125 C 23.53125 -20.054688 23.265625 -20.519531 22.890625 -20.96875 C 22.234375 -22 21.359375 -22.773438 20.265625 -23.296875 C 19.179688 -23.816406 18.003906 -24.078125 16.734375 -24.078125 C 15.460938 -24.078125 14.300781 -23.816406 13.25 -23.296875 C 12.195312 -22.773438 11.328125 -22 10.640625 -20.96875 C 10.265625 -20.519531 10 -20.054688 9.84375 -19.578125 C 9.6875 -19.097656 9.570312 -18.664062 9.5 -18.28125 Z M 9.5 -18.28125 "/></g></g></g><g fill="#13343b" fill-opacity="1"><g transform="translate(72.180699, 44.351627)"><g><path d="M 8.625 0 L 0.671875 0 L 10.59375 -14.625 L 0.625 -28.984375 L 8.625 -28.984375 L 14.921875 -19.265625 L 21.390625 -28.984375 L 29.5 -28.984375 L 19.3125 -14.625 L 29.4375 0 L 21.390625 0 L 14.984375 -9.859375 Z M 8.625 0 "/></g></g></g><g fill="#13343b" fill-opacity="1"><g transform="translate(102.240799, 44.351627)"><g><path d="M 17.96875 0 L 12.25 0 C 10.113281 0 8.445312 -0.5 7.25 -1.5 C 6.0625 -2.5 5.46875 -4.117188 5.46875 -6.359375 L 5.46875 -23.40625 L 1.1875 -23.40625 L 1.1875 -28.984375 L 5.46875 -28.984375 L 5.46875 -39.40625 L 12.453125 -39.40625 L 12.453125 -28.984375 L 18.03125 -28.984375 L 18.03125 -23.40625 L 12.453125 -23.40625 L 12.453125 -8.46875 C 12.453125 -7.707031 12.578125 -7.066406 12.828125 -6.546875 C 13.085938 -6.035156 13.753906 -5.78125 14.828125 -5.78125 L 17.96875 -5.78125 Z M 17.96875 0 "/></g></g></g><g fill="#13343b" fill-opacity="1"><g transform="translate(122.022616, 44.351627)"><g/></g></g><g fill="#13343b" fill-opacity="1"><g transform="translate(135.864726, 44.351627)"><g><path d="M 14.984375 0 L 3.515625 0 L 3.515625 -39.40625 L 14.984375 -39.40625 C 21.660156 -39.40625 26.765625 -37.703125 30.296875 -34.296875 C 33.828125 -30.890625 35.59375 -26.019531 35.59375 -19.6875 C 35.59375 -13.382812 33.816406 -8.523438 30.265625 -5.109375 C 26.722656 -1.703125 21.628906 0 14.984375 0 Z M 10.953125 -32.75 L 10.953125 -6.65625 L 14.875 -6.65625 C 17.488281 -6.65625 19.796875 -7.0625 21.796875 -7.875 C 23.796875 -8.6875 25.351562 -10.046875 26.46875 -11.953125 C 27.59375 -13.867188 28.15625 -16.445312 28.15625 -19.6875 C 28.15625 -22.75 27.601562 -25.234375 26.5 -27.140625 C 25.394531 -29.054688 23.851562 -30.46875 21.875 -31.375 C 19.894531 -32.289062 17.578125 -32.75 14.921875 -32.75 Z M 10.953125 -32.75 "/></g></g></g><g fill="#13343b" fill-opacity="1"><g transform="translate(173.46568, 44.351627)"><g><path d="M 11.515625 0.5625 C 8.796875 0.5625 6.53125 -0.164062 4.71875 -1.625 C 2.914062 -3.09375 2.015625 -5.203125 2.015625 -7.953125 C 2.015625 -9.503906 2.316406 -10.820312 2.921875 -11.90625 C 3.523438 -12.988281 4.328125 -13.875 5.328125 -14.5625 C 6.253906 -15.21875 7.3125 -15.734375 8.5 -16.109375 C 9.6875 -16.492188 10.882812 -16.804688 12.09375 -17.046875 L 20.71875 -18.640625 C 20.644531 -20.429688 20.175781 -21.796875 19.3125 -22.734375 C 18.457031 -23.660156 17.164062 -24.125 15.4375 -24.125 C 14.132812 -24.125 12.972656 -23.734375 11.953125 -22.953125 C 10.941406 -22.179688 10.296875 -21.109375 10.015625 -19.734375 L 3.09375 -19.734375 C 3.4375 -22.003906 4.226562 -23.863281 5.46875 -25.3125 C 6.707031 -26.757812 8.210938 -27.832031 9.984375 -28.53125 C 11.765625 -29.238281 13.601562 -29.59375 15.5 -29.59375 C 17.1875 -29.59375 18.800781 -29.351562 20.34375 -28.875 C 21.894531 -28.394531 23.207031 -27.65625 24.28125 -26.65625 C 25.414062 -25.65625 26.222656 -24.507812 26.703125 -23.21875 C 27.179688 -21.925781 27.460938 -20.582031 27.546875 -19.1875 C 27.640625 -17.789062 27.6875 -16.421875 27.6875 -15.078125 L 27.6875 0 L 20.71875 0 L 20.71875 -3.921875 C 19.988281 -2.648438 19.109375 -1.6875 18.078125 -1.03125 C 17.179688 -0.445312 16.171875 -0.0351562 15.046875 0.203125 C 13.929688 0.441406 12.753906 0.5625 11.515625 0.5625 Z M 13.21875 -4.90625 C 14.601562 -4.90625 15.84375 -5.179688 16.9375 -5.734375 C 18.457031 -6.492188 19.484375 -7.507812 20.015625 -8.78125 C 20.546875 -10.050781 20.832031 -11.632812 20.875 -13.53125 L 13.953125 -12.140625 C 12.953125 -11.960938 12.128906 -11.734375 11.484375 -11.453125 C 10.847656 -11.179688 10.328125 -10.859375 9.921875 -10.484375 C 9.640625 -10.210938 9.410156 -9.882812 9.234375 -9.5 C 9.066406 -9.125 8.984375 -8.695312 8.984375 -8.21875 C 8.984375 -7.144531 9.390625 -6.320312 10.203125 -5.75 C 11.015625 -5.1875 12.019531 -4.90625 13.21875 -4.90625 Z M 13.21875 -4.90625 "/></g></g></g><g fill="#13343b" fill-opacity="1"><g transform="translate(203.990629, 44.351627)"><g><path d="M 6.65625 -32.1875 C 5.488281 -32.1875 4.484375 -32.546875 3.640625 -33.265625 C 2.796875 -33.984375 2.375 -34.945312 2.375 -36.15625 C 2.375 -37.332031 2.796875 -38.289062 3.640625 -39.03125 C 4.484375 -39.769531 5.488281 -40.140625 6.65625 -40.140625 C 7.832031 -40.140625 8.84375 -39.769531 9.6875 -39.03125 C 10.53125 -38.289062 10.953125 -37.332031 10.953125 -36.15625 C 10.953125 -34.945312 10.53125 -33.984375 9.6875 -33.265625 C 8.84375 -32.546875 7.832031 -32.1875 6.65625 -32.1875 Z M 10.125 0 L 3.15625 0 L 3.15625 -28.984375 L 10.125 -28.984375 Z M 10.125 0 "/></g></g></g><g fill="#13343b" fill-opacity="1"><g transform="translate(217.31624, 44.351627)"><g><path d="M 14.25 0 L 9.765625 0 C 7.628906 0 5.972656 -0.5 4.796875 -1.5 C 3.628906 -2.5 3.046875 -4.117188 3.046875 -6.359375 L 3.046875 -39.40625 L 10.015625 -39.40625 L 10.015625 -8.421875 C 10.015625 -7.453125 10.195312 -6.769531 10.5625 -6.375 C 10.925781 -5.976562 11.535156 -5.78125 12.390625 -5.78125 L 14.25 -5.78125 Z M 14.25 0 "/></g></g></g></g></g><g transform="matrix(1, 0, 0, 1, 96, 48)"><g clip-path="url(#ac810113b4)"><g fill="#13343b" fill-opacity="1"><g transform="translate(0.129433, 20.637435)"><g><path d="M 6.015625 0 L 1.65625 0 L 1.65625 -15.953125 L 6.046875 -15.953125 C 8.703125 -15.953125 10.726562 -15.253906 12.125 -13.859375 C 13.53125 -12.460938 14.234375 -10.484375 14.234375 -7.921875 C 14.234375 -5.398438 13.53125 -3.445312 12.125 -2.0625 C 10.71875 -0.6875 8.679688 0 6.015625 0 Z M 3.578125 -14.21875 L 3.578125 -1.734375 L 6 -1.734375 C 6.832031 -1.734375 7.628906 -1.820312 8.390625 -2 C 9.148438 -2.175781 9.820312 -2.488281 10.40625 -2.9375 C 11 -3.382812 11.460938 -4.015625 11.796875 -4.828125 C 12.140625 -5.640625 12.3125 -6.671875 12.3125 -7.921875 C 12.3125 -9.484375 12.039062 -10.71875 11.5 -11.625 C 10.96875 -12.539062 10.226562 -13.203125 9.28125 -13.609375 C 8.34375 -14.015625 7.253906 -14.21875 6.015625 -14.21875 Z M 3.578125 -14.21875 "/></g></g></g><g fill="#13343b" fill-opacity="1"><g transform="translate(15.42972, 20.637435)"><g><path d="M 2.390625 -13.546875 C 2.003906 -13.546875 1.679688 -13.675781 1.421875 -13.9375 C 1.160156 -14.195312 1.03125 -14.503906 1.03125 -14.859375 C 1.03125 -15.222656 1.160156 -15.53125 1.421875 -15.78125 C 1.679688 -16.03125 2.003906 -16.15625 2.390625 -16.15625 C 2.765625 -16.15625 3.082031 -16.03125 3.34375 -15.78125 C 3.613281 -15.53125 3.75 -15.222656 3.75 -14.859375 C 3.75 -14.503906 3.613281 -14.195312 3.34375 -13.9375 C 3.082031 -13.675781 2.765625 -13.546875 2.390625 -13.546875 Z M 3.265625 0 L 1.484375 0 L 1.484375 -11.5625 L 3.265625 -11.5625 Z M 3.265625 0 "/></g></g></g><g fill="#13343b" fill-opacity="1"><g transform="translate(20.174483, 20.637435)"><g><path d="M 6.578125 4.59375 C 5.804688 4.59375 5.050781 4.484375 4.3125 4.265625 C 3.582031 4.046875 2.957031 3.671875 2.4375 3.140625 C 1.914062 2.609375 1.578125 1.875 1.421875 0.9375 L 3.234375 0.9375 C 3.421875 1.625 3.785156 2.144531 4.328125 2.5 C 4.867188 2.851562 5.613281 3.03125 6.5625 3.03125 C 7.78125 3.03125 8.660156 2.753906 9.203125 2.203125 C 9.742188 1.648438 10.015625 0.894531 10.015625 -0.0625 L 10.015625 -1.796875 C 9.410156 -1.023438 8.820312 -0.5 8.25 -0.21875 C 7.6875 0.0625 7.015625 0.203125 6.234375 0.203125 C 5.203125 0.203125 4.296875 -0.046875 3.515625 -0.546875 C 2.742188 -1.046875 2.144531 -1.742188 1.71875 -2.640625 C 1.300781 -3.546875 1.09375 -4.578125 1.09375 -5.734375 C 1.09375 -6.929688 1.300781 -7.984375 1.71875 -8.890625 C 2.144531 -9.796875 2.738281 -10.5 3.5 -11 C 4.269531 -11.507812 5.171875 -11.765625 6.203125 -11.765625 C 7.015625 -11.765625 7.707031 -11.617188 8.28125 -11.328125 C 8.851562 -11.035156 9.429688 -10.515625 10.015625 -9.765625 L 10.015625 -11.5625 L 11.796875 -11.5625 L 11.796875 -0.390625 C 11.796875 0.859375 11.570312 1.84375 11.125 2.5625 C 10.675781 3.289062 10.0625 3.8125 9.28125 4.125 C 8.5 4.4375 7.597656 4.59375 6.578125 4.59375 Z M 6.390625 -1.359375 C 7.117188 -1.359375 7.757812 -1.550781 8.3125 -1.9375 C 8.863281 -2.320312 9.296875 -2.847656 9.609375 -3.515625 C 9.921875 -4.179688 10.078125 -4.941406 10.078125 -5.796875 C 10.078125 -6.640625 9.914062 -7.390625 9.59375 -8.046875 C 9.269531 -8.710938 8.832031 -9.238281 8.28125 -9.625 C 7.738281 -10.007812 7.109375 -10.203125 6.390625 -10.203125 C 5.671875 -10.203125 5.046875 -10.003906 4.515625 -9.609375 C 3.984375 -9.222656 3.570312 -8.695312 3.28125 -8.03125 C 3 -7.375 2.859375 -6.628906 2.859375 -5.796875 C 2.859375 -4.953125 3 -4.195312 3.28125 -3.53125 C 3.570312 -2.863281 3.984375 -2.332031 4.515625 -1.9375 C 5.046875 -1.550781 5.671875 -1.359375 6.390625 -1.359375 Z M 6.390625 -1.359375 "/></g></g></g><g fill="#13343b" fill-opacity="1"><g transform="translate(33.447276, 20.637435)"><g><path d="M 2.390625 -13.546875 C 2.003906 -13.546875 1.679688 -13.675781 1.421875 -13.9375 C 1.160156 -14.195312 1.03125 -14.503906 1.03125 -14.859375 C 1.03125 -15.222656 1.160156 -15.53125 1.421875 -15.78125 C 1.679688 -16.03125 2.003906 -16.15625 2.390625 -16.15625 C 2.765625 -16.15625 3.082031 -16.03125 3.34375 -15.78125 C 3.613281 -15.53125 3.75 -15.222656 3.75 -14.859375 C 3.75 -14.503906 3.613281 -14.195312 3.34375 -13.9375 C 3.082031 -13.675781 2.765625 -13.546875 2.390625 -13.546875 Z M 3.265625 0 L 1.484375 0 L 1.484375 -11.5625 L 3.265625 -11.5625 Z M 3.265625 0 "/></g></g></g><g fill="#13343b" fill-opacity="1"><g transform="translate(38.19204, 20.637435)"><g><path d="M 6.78125 0 L 5.15625 0 C 4.59375 0 4.101562 -0.078125 3.6875 -0.234375 C 3.28125 -0.398438 2.96875 -0.691406 2.75 -1.109375 C 2.53125 -1.535156 2.421875 -2.132812 2.421875 -2.90625 L 2.421875 -10 L 0.5625 -10 L 0.5625 -11.5625 L 2.421875 -11.5625 L 2.421875 -15.953125 L 4.203125 -15.953125 L 4.203125 -11.5625 L 6.796875 -11.5625 L 6.796875 -10 L 4.203125 -10 L 4.203125 -3.265625 C 4.203125 -2.929688 4.222656 -2.632812 4.265625 -2.375 C 4.316406 -2.113281 4.441406 -1.910156 4.640625 -1.765625 C 4.835938 -1.628906 5.148438 -1.5625 5.578125 -1.5625 L 6.78125 -1.5625 Z M 6.78125 0 "/></g></g></g><g fill="#13343b" fill-opacity="1"><g transform="translate(45.73768, 20.637435)"><g><path d="M 4.765625 0.203125 C 3.609375 0.203125 2.691406 -0.0859375 2.015625 -0.671875 C 1.335938 -1.253906 1 -2.054688 1 -3.078125 C 1 -4.078125 1.375 -4.867188 2.125 -5.453125 C 2.738281 -5.941406 3.625 -6.304688 4.78125 -6.546875 L 8.90625 -7.34375 C 8.90625 -8.25 8.664062 -8.9375 8.1875 -9.40625 C 7.664062 -9.9375 6.957031 -10.203125 6.0625 -10.203125 C 5.351562 -10.203125 4.734375 -10.015625 4.203125 -9.640625 C 3.679688 -9.265625 3.351562 -8.75 3.21875 -8.09375 L 1.4375 -8.09375 C 1.582031 -8.894531 1.878906 -9.566406 2.328125 -10.109375 C 2.785156 -10.660156 3.335938 -11.070312 3.984375 -11.34375 C 4.640625 -11.625 5.335938 -11.765625 6.078125 -11.765625 C 6.753906 -11.765625 7.382812 -11.664062 7.96875 -11.46875 C 8.5625 -11.28125 9.0625 -10.984375 9.46875 -10.578125 C 9.875 -10.191406 10.160156 -9.753906 10.328125 -9.265625 C 10.492188 -8.773438 10.59375 -8.3125 10.625 -7.875 C 10.664062 -7.4375 10.6875 -7.082031 10.6875 -6.8125 L 10.6875 0 L 8.90625 0 L 8.90625 -1.8125 C 8.5 -1.226562 8.03125 -0.773438 7.5 -0.453125 C 7.113281 -0.222656 6.691406 -0.0546875 6.234375 0.046875 C 5.785156 0.148438 5.296875 0.203125 4.765625 0.203125 Z M 4.96875 -1.359375 C 5.6875 -1.359375 6.300781 -1.488281 6.8125 -1.75 C 7.632812 -2.1875 8.191406 -2.742188 8.484375 -3.421875 C 8.773438 -4.109375 8.921875 -4.929688 8.921875 -5.890625 L 5.15625 -5.140625 C 4.300781 -4.972656 3.671875 -4.703125 3.265625 -4.328125 C 2.941406 -4.003906 2.78125 -3.597656 2.78125 -3.109375 C 2.78125 -2.585938 2.976562 -2.164062 3.375 -1.84375 C 3.769531 -1.519531 4.300781 -1.359375 4.96875 -1.359375 Z M 4.96875 -1.359375 "/></g></g></g><g fill="#13343b" fill-opacity="1"><g transform="translate(57.777253, 20.637435)"><g><path d="M 5.15625 0 L 4.1875 0 C 3.613281 0 3.117188 -0.078125 2.703125 -0.234375 C 2.296875 -0.398438 1.984375 -0.691406 1.765625 -1.109375 C 1.546875 -1.535156 1.4375 -2.132812 1.4375 -2.90625 L 1.4375 -15.953125 L 3.21875 -15.953125 L 3.21875 -3.171875 C 3.21875 -2.828125 3.238281 -2.535156 3.28125 -2.296875 C 3.332031 -2.054688 3.457031 -1.875 3.65625 -1.75 C 3.851562 -1.625 4.164062 -1.5625 4.59375 -1.5625 L 5.15625 -1.5625 Z M 5.15625 0 "/></g></g></g><g fill="#13343b" fill-opacity="1"><g transform="translate(63.567121, 20.637435)"><g/></g></g><g fill="#13343b" fill-opacity="1"><g transform="translate(69.419689, 20.637435)"><g><path d="M 3.578125 0 L 1.65625 0 L 1.65625 -15.953125 L 5.09375 -15.953125 L 9.390625 -2.390625 L 13.671875 -15.953125 L 17.140625 -15.953125 L 17.140625 0 L 15.21875 0 L 15.21875 -14.796875 L 10.34375 0 L 8.453125 0 L 3.578125 -14.703125 Z M 3.578125 0 "/></g></g></g><g fill="#13343b" fill-opacity="1"><g transform="translate(88.210615, 20.637435)"><g><path d="M 4.765625 0.203125 C 3.609375 0.203125 2.691406 -0.0859375 2.015625 -0.671875 C 1.335938 -1.253906 1 -2.054688 1 -3.078125 C 1 -4.078125 1.375 -4.867188 2.125 -5.453125 C 2.738281 -5.941406 3.625 -6.304688 4.78125 -6.546875 L 8.90625 -7.34375 C 8.90625 -8.25 8.664062 -8.9375 8.1875 -9.40625 C 7.664062 -9.9375 6.957031 -10.203125 6.0625 -10.203125 C 5.351562 -10.203125 4.734375 -10.015625 4.203125 -9.640625 C 3.679688 -9.265625 3.351562 -8.75 3.21875 -8.09375 L 1.4375 -8.09375 C 1.582031 -8.894531 1.878906 -9.566406 2.328125 -10.109375 C 2.785156 -10.660156 3.335938 -11.070312 3.984375 -11.34375 C 4.640625 -11.625 5.335938 -11.765625 6.078125 -11.765625 C 6.753906 -11.765625 7.382812 -11.664062 7.96875 -11.46875 C 8.5625 -11.28125 9.0625 -10.984375 9.46875 -10.578125 C 9.875 -10.191406 10.160156 -9.753906 10.328125 -9.265625 C 10.492188 -8.773438 10.59375 -8.3125 10.625 -7.875 C 10.664062 -7.4375 10.6875 -7.082031 10.6875 -6.8125 L 10.6875 0 L 8.90625 0 L 8.90625 -1.8125 C 8.5 -1.226562 8.03125 -0.773438 7.5 -0.453125 C 7.113281 -0.222656 6.691406 -0.0546875 6.234375 0.046875 C 5.785156 0.148438 5.296875 0.203125 4.765625 0.203125 Z M 4.96875 -1.359375 C 5.6875 -1.359375 6.300781 -1.488281 6.8125 -1.75 C 7.632812 -2.1875 8.191406 -2.742188 8.484375 -3.421875 C 8.773438 -4.109375 8.921875 -4.929688 8.921875 -5.890625 L 5.15625 -5.140625 C 4.300781 -4.972656 3.671875 -4.703125 3.265625 -4.328125 C 2.941406 -4.003906 2.78125 -3.597656 2.78125 -3.109375 C 2.78125 -2.585938 2.976562 -2.164062 3.375 -1.84375 C 3.769531 -1.519531 4.300781 -1.359375 4.96875 -1.359375 Z M 4.96875 -1.359375 "/></g></g></g><g fill="#13343b" fill-opacity="1"><g transform="translate(100.250188, 20.637435)"><g><path d="M 3.265625 0 L 1.484375 0 L 1.484375 -11.5625 L 3.265625 -11.5625 L 3.265625 -9.96875 C 3.796875 -10.625 4.363281 -11.085938 4.96875 -11.359375 C 5.570312 -11.628906 6.265625 -11.765625 7.046875 -11.765625 L 7.125 -11.765625 L 7.125 -10 L 6.515625 -10 C 5.585938 -10 4.84375 -9.71875 4.28125 -9.15625 C 3.945312 -8.832031 3.691406 -8.421875 3.515625 -7.921875 C 3.347656 -7.421875 3.265625 -6.804688 3.265625 -6.078125 Z M 3.265625 0 "/></g></g></g><g fill="#13343b" fill-opacity="1"><g transform="translate(107.837623, 20.637435)"><g><path d="M 3.28125 0 L 1.5 0 L 1.5 -15.953125 L 3.28125 -15.953125 L 3.28125 -6.9375 L 8.359375 -11.5625 L 10.828125 -11.5625 L 5.15625 -6.484375 L 11.359375 0 L 8.921875 0 L 3.28125 -6.046875 Z M 3.28125 0 "/></g></g></g><g fill="#13343b" fill-opacity="1"><g transform="translate(119.417345, 20.637435)"><g><path d="M 6.625 0.203125 C 5.519531 0.203125 4.539062 -0.0546875 3.6875 -0.578125 C 2.84375 -1.097656 2.179688 -1.804688 1.703125 -2.703125 C 1.234375 -3.609375 1 -4.625 1 -5.75 C 1 -6.789062 1.210938 -7.769531 1.640625 -8.6875 C 2.078125 -9.613281 2.710938 -10.359375 3.546875 -10.921875 C 4.390625 -11.484375 5.398438 -11.765625 6.578125 -11.765625 C 7.554688 -11.765625 8.46875 -11.546875 9.3125 -11.109375 C 10.15625 -10.679688 10.84375 -10.039062 11.375 -9.1875 C 11.90625 -8.34375 12.171875 -7.300781 12.171875 -6.0625 L 12.171875 -5.4375 L 2.765625 -5.4375 C 2.785156 -5.03125 2.859375 -4.644531 2.984375 -4.28125 C 3.273438 -3.394531 3.742188 -2.6875 4.390625 -2.15625 C 5.035156 -1.625 5.773438 -1.359375 6.609375 -1.359375 C 7.484375 -1.359375 8.210938 -1.59375 8.796875 -2.0625 C 9.378906 -2.53125 9.800781 -3.082031 10.0625 -3.71875 L 11.953125 -3.71875 C 11.722656 -3 11.367188 -2.34375 10.890625 -1.75 C 10.421875 -1.15625 9.832031 -0.679688 9.125 -0.328125 C 8.414062 0.0234375 7.582031 0.203125 6.625 0.203125 Z M 2.921875 -7 L 10.265625 -7 C 10.253906 -7.195312 10.226562 -7.390625 10.1875 -7.578125 C 10.144531 -7.773438 10.085938 -7.957031 10.015625 -8.125 C 9.703125 -8.800781 9.242188 -9.316406 8.640625 -9.671875 C 8.035156 -10.023438 7.363281 -10.203125 6.625 -10.203125 C 5.863281 -10.203125 5.191406 -10.019531 4.609375 -9.65625 C 4.035156 -9.289062 3.585938 -8.78125 3.265625 -8.125 C 3.179688 -7.945312 3.109375 -7.757812 3.046875 -7.5625 C 2.992188 -7.375 2.953125 -7.1875 2.921875 -7 Z M 2.921875 -7 "/></g></g></g><g fill="#13343b" fill-opacity="1"><g transform="translate(132.564723, 20.637435)"><g><path d="M 6.78125 0 L 5.15625 0 C 4.59375 0 4.101562 -0.078125 3.6875 -0.234375 C 3.28125 -0.398438 2.96875 -0.691406 2.75 -1.109375 C 2.53125 -1.535156 2.421875 -2.132812 2.421875 -2.90625 L 2.421875 -10 L 0.5625 -10 L 0.5625 -11.5625 L 2.421875 -11.5625 L 2.421875 -15.953125 L 4.203125 -15.953125 L 4.203125 -11.5625 L 6.796875 -11.5625 L 6.796875 -10 L 4.203125 -10 L 4.203125 -3.265625 C 4.203125 -2.929688 4.222656 -2.632812 4.265625 -2.375 C 4.316406 -2.113281 4.441406 -1.910156 4.640625 -1.765625 C 4.835938 -1.628906 5.148438 -1.5625 5.578125 -1.5625 L 6.78125 -1.5625 Z M 6.78125 0 "/></g></g></g><g fill="#13343b" fill-opacity="1"><g transform="translate(140.110362, 20.637435)"><g><path d="M 2.390625 -13.546875 C 2.003906 -13.546875 1.679688 -13.675781 1.421875 -13.9375 C 1.160156 -14.195312 1.03125 -14.503906 1.03125 -14.859375 C 1.03125 -15.222656 1.160156 -15.53125 1.421875 -15.78125 C 1.679688 -16.03125 2.003906 -16.15625 2.390625 -16.15625 C 2.765625 -16.15625 3.082031 -16.03125 3.34375 -15.78125 C 3.613281 -15.53125 3.75 -15.222656 3.75 -14.859375 C 3.75 -14.503906 3.613281 -14.195312 3.34375 -13.9375 C 3.082031 -13.675781 2.765625 -13.546875 2.390625 -13.546875 Z M 3.265625 0 L 1.484375 0 L 1.484375 -11.5625 L 3.265625 -11.5625 Z M 3.265625 0 "/></g></g></g><g fill="#13343b" fill-opacity="1"><g transform="translate(144.855126, 20.637435)"><g><path d="M 3.265625 0 L 1.484375 0 L 1.484375 -11.5625 L 3.265625 -11.5625 L 3.265625 -9.765625 C 3.847656 -10.515625 4.40625 -11.035156 4.9375 -11.328125 C 5.476562 -11.617188 6.0625 -11.765625 6.6875 -11.765625 C 7.59375 -11.765625 8.316406 -11.59375 8.859375 -11.25 C 9.398438 -10.914062 9.8125 -10.484375 10.09375 -9.953125 C 10.375 -9.429688 10.535156 -8.890625 10.578125 -8.328125 C 10.617188 -7.773438 10.640625 -7.320312 10.640625 -6.96875 L 10.640625 0 L 8.859375 0 L 8.859375 -6.96875 C 8.859375 -8.1875 8.632812 -9.046875 8.1875 -9.546875 C 7.800781 -9.984375 7.210938 -10.203125 6.421875 -10.203125 C 5.941406 -10.203125 5.523438 -10.125 5.171875 -9.96875 C 4.828125 -9.820312 4.539062 -9.613281 4.3125 -9.34375 C 3.9375 -8.957031 3.664062 -8.421875 3.5 -7.734375 C 3.34375 -7.046875 3.265625 -6.113281 3.265625 -4.9375 Z M 3.265625 0 "/></g></g></g><g fill="#13343b" fill-opacity="1"><g transform="translate(156.894699, 20.637435)"><g><path d="M 6.578125 4.59375 C 5.804688 4.59375 5.050781 4.484375 4.3125 4.265625 C 3.582031 4.046875 2.957031 3.671875 2.4375 3.140625 C 1.914062 2.609375 1.578125 1.875 1.421875 0.9375 L 3.234375 0.9375 C 3.421875 1.625 3.785156 2.144531 4.328125 2.5 C 4.867188 2.851562 5.613281 3.03125 6.5625 3.03125 C 7.78125 3.03125 8.660156 2.753906 9.203125 2.203125 C 9.742188 1.648438 10.015625 0.894531 10.015625 -0.0625 L 10.015625 -1.796875 C 9.410156 -1.023438 8.820312 -0.5 8.25 -0.21875 C 7.6875 0.0625 7.015625 0.203125 6.234375 0.203125 C 5.203125 0.203125 4.296875 -0.046875 3.515625 -0.546875 C 2.742188 -1.046875 2.144531 -1.742188 1.71875 -2.640625 C 1.300781 -3.546875 1.09375 -4.578125 1.09375 -5.734375 C 1.09375 -6.929688 1.300781 -7.984375 1.71875 -8.890625 C 2.144531 -9.796875 2.738281 -10.5 3.5 -11 C 4.269531 -11.507812 5.171875 -11.765625 6.203125 -11.765625 C 7.015625 -11.765625 7.707031 -11.617188 8.28125 -11.328125 C 8.851562 -11.035156 9.429688 -10.515625 10.015625 -9.765625 L 10.015625 -11.5625 L 11.796875 -11.5625 L 11.796875 -0.390625 C 11.796875 0.859375 11.570312 1.84375 11.125 2.5625 C 10.675781 3.289062 10.0625 3.8125 9.28125 4.125 C 8.5 4.4375 7.597656 4.59375 6.578125 4.59375 Z M 6.390625 -1.359375 C 7.117188 -1.359375 7.757812 -1.550781 8.3125 -1.9375 C 8.863281 -2.320312 9.296875 -2.847656 9.609375 -3.515625 C 9.921875 -4.179688 10.078125 -4.941406 10.078125 -5.796875 C 10.078125 -6.640625 9.914062 -7.390625 9.59375 -8.046875 C 9.269531 -8.710938 8.832031 -9.238281 8.28125 -9.625 C 7.738281 -10.007812 7.109375 -10.203125 6.390625 -10.203125 C 5.671875 -10.203125 5.046875 -10.003906 4.515625 -9.609375 C 3.984375 -9.222656 3.570312 -8.695312 3.28125 -8.03125 C 3 -7.375 2.859375 -6.628906 2.859375 -5.796875 C 2.859375 -4.953125 3 -4.195312 3.28125 -3.53125 C 3.570312 -2.863281 3.984375 -2.332031 4.515625 -1.9375 C 5.046875 -1.550781 5.671875 -1.359375 6.390625 -1.359375 Z M 6.390625 -1.359375 "/></g></g></g><g fill="#13343b" fill-opacity="1"><g transform="translate(170.167492, 20.637435)"><g/></g></g><g fill="#13343b" fill-opacity="1"><g transform="translate(176.020061, 20.637435)"><g><path d="M 7.421875 0.203125 C 6.378906 0.203125 5.390625 0.0351562 4.453125 -0.296875 C 3.515625 -0.640625 2.726562 -1.179688 2.09375 -1.921875 C 1.46875 -2.671875 1.0625 -3.640625 0.875 -4.828125 L 2.828125 -4.828125 C 2.992188 -3.972656 3.316406 -3.304688 3.796875 -2.828125 C 4.285156 -2.347656 4.859375 -2.003906 5.515625 -1.796875 C 6.179688 -1.597656 6.84375 -1.5 7.5 -1.5 C 8.613281 -1.5 9.488281 -1.734375 10.125 -2.203125 C 10.757812 -2.671875 11.078125 -3.378906 11.078125 -4.328125 C 11.078125 -4.898438 10.953125 -5.363281 10.703125 -5.71875 C 10.460938 -6.082031 10.132812 -6.375 9.71875 -6.59375 C 9.300781 -6.820312 8.832031 -7.003906 8.3125 -7.140625 C 7.789062 -7.285156 7.242188 -7.421875 6.671875 -7.546875 C 6.046875 -7.671875 5.425781 -7.816406 4.8125 -7.984375 C 4.207031 -8.148438 3.65625 -8.378906 3.15625 -8.671875 C 2.664062 -8.960938 2.269531 -9.351562 1.96875 -9.84375 C 1.675781 -10.34375 1.53125 -10.984375 1.53125 -11.765625 C 1.53125 -12.671875 1.75 -13.453125 2.1875 -14.109375 C 2.625 -14.765625 3.234375 -15.269531 4.015625 -15.625 C 4.796875 -15.976562 5.707031 -16.15625 6.75 -16.15625 C 7.65625 -16.15625 8.515625 -16 9.328125 -15.6875 C 10.148438 -15.375 10.847656 -14.882812 11.421875 -14.21875 C 12.003906 -13.550781 12.378906 -12.664062 12.546875 -11.5625 L 10.6875 -11.5625 C 10.53125 -12.28125 10.25 -12.847656 9.84375 -13.265625 C 9.4375 -13.691406 8.960938 -13.992188 8.421875 -14.171875 C 7.878906 -14.359375 7.316406 -14.453125 6.734375 -14.453125 C 5.660156 -14.453125 4.84375 -14.222656 4.28125 -13.765625 C 3.726562 -13.316406 3.453125 -12.707031 3.453125 -11.9375 C 3.453125 -11.289062 3.640625 -10.789062 4.015625 -10.4375 C 4.398438 -10.082031 4.898438 -9.8125 5.515625 -9.625 C 6.140625 -9.4375 6.8125 -9.265625 7.53125 -9.109375 C 8.1875 -8.972656 8.835938 -8.8125 9.484375 -8.625 C 10.128906 -8.445312 10.71875 -8.195312 11.25 -7.875 C 11.78125 -7.5625 12.203125 -7.128906 12.515625 -6.578125 C 12.835938 -6.035156 13 -5.328125 13 -4.453125 C 13 -3.046875 12.523438 -1.914062 11.578125 -1.0625 C 10.628906 -0.21875 9.242188 0.203125 7.421875 0.203125 Z M 7.421875 0.203125 "/></g></g></g><g fill="#13343b" fill-opacity="1"><g transform="translate(190.087127, 20.637435)"><g><path d="M 6.625 0.203125 C 5.519531 0.203125 4.539062 -0.0546875 3.6875 -0.578125 C 2.84375 -1.097656 2.179688 -1.804688 1.703125 -2.703125 C 1.234375 -3.609375 1 -4.625 1 -5.75 C 1 -6.789062 1.210938 -7.769531 1.640625 -8.6875 C 2.078125 -9.613281 2.710938 -10.359375 3.546875 -10.921875 C 4.390625 -11.484375 5.398438 -11.765625 6.578125 -11.765625 C 7.554688 -11.765625 8.46875 -11.546875 9.3125 -11.109375 C 10.15625 -10.679688 10.84375 -10.039062 11.375 -9.1875 C 11.90625 -8.34375 12.171875 -7.300781 12.171875 -6.0625 L 12.171875 -5.4375 L 2.765625 -5.4375 C 2.785156 -5.03125 2.859375 -4.644531 2.984375 -4.28125 C 3.273438 -3.394531 3.742188 -2.6875 4.390625 -2.15625 C 5.035156 -1.625 5.773438 -1.359375 6.609375 -1.359375 C 7.484375 -1.359375 8.210938 -1.59375 8.796875 -2.0625 C 9.378906 -2.53125 9.800781 -3.082031 10.0625 -3.71875 L 11.953125 -3.71875 C 11.722656 -3 11.367188 -2.34375 10.890625 -1.75 C 10.421875 -1.15625 9.832031 -0.679688 9.125 -0.328125 C 8.414062 0.0234375 7.582031 0.203125 6.625 0.203125 Z M 2.921875 -7 L 10.265625 -7 C 10.253906 -7.195312 10.226562 -7.390625 10.1875 -7.578125 C 10.144531 -7.773438 10.085938 -7.957031 10.015625 -8.125 C 9.703125 -8.800781 9.242188 -9.316406 8.640625 -9.671875 C 8.035156 -10.023438 7.363281 -10.203125 6.625 -10.203125 C 5.863281 -10.203125 5.191406 -10.019531 4.609375 -9.65625 C 4.035156 -9.289062 3.585938 -8.78125 3.265625 -8.125 C 3.179688 -7.945312 3.109375 -7.757812 3.046875 -7.5625 C 2.992188 -7.375 2.953125 -7.1875 2.921875 -7 Z M 2.921875 -7 "/></g></g></g><g fill="#13343b" fill-opacity="1"><g transform="translate(203.234505, 20.637435)"><g><path d="M 3.265625 0 L 1.484375 0 L 1.484375 -11.5625 L 3.265625 -11.5625 L 3.265625 -9.96875 C 3.796875 -10.625 4.363281 -11.085938 4.96875 -11.359375 C 5.570312 -11.628906 6.265625 -11.765625 7.046875 -11.765625 L 7.125 -11.765625 L 7.125 -10 L 6.515625 -10 C 5.585938 -10 4.84375 -9.71875 4.28125 -9.15625 C 3.945312 -8.832031 3.691406 -8.421875 3.515625 -7.921875 C 3.347656 -7.421875 3.265625 -6.804688 3.265625 -6.078125 Z M 3.265625 0 "/></g></g></g><g fill="#13343b" fill-opacity="1"><g transform="translate(210.82194, 20.637435)"><g><path d="M 6.140625 0 L 4.6875 0 L 0.421875 -11.5625 L 2.390625 -11.5625 L 5.421875 -3.015625 L 8.484375 -11.5625 L 10.4375 -11.5625 Z M 6.140625 0 "/></g></g></g><g fill="#13343b" fill-opacity="1"><g transform="translate(221.670103, 20.637435)"><g><path d="M 2.390625 -13.546875 C 2.003906 -13.546875 1.679688 -13.675781 1.421875 -13.9375 C 1.160156 -14.195312 1.03125 -14.503906 1.03125 -14.859375 C 1.03125 -15.222656 1.160156 -15.53125 1.421875 -15.78125 C 1.679688 -16.03125 2.003906 -16.15625 2.390625 -16.15625 C 2.765625 -16.15625 3.082031 -16.03125 3.34375 -15.78125 C 3.613281 -15.53125 3.75 -15.222656 3.75 -14.859375 C 3.75 -14.503906 3.613281 -14.195312 3.34375 -13.9375 C 3.082031 -13.675781 2.765625 -13.546875 2.390625 -13.546875 Z M 3.265625 0 L 1.484375 0 L 1.484375 -11.5625 L 3.265625 -11.5625 Z M 3.265625 0 "/></g></g></g><g fill="#13343b" fill-opacity="1"><g transform="translate(226.414867, 20.637435)"><g><path d="M 6.609375 0.203125 C 5.515625 0.203125 4.546875 -0.0507812 3.703125 -0.5625 C 2.867188 -1.082031 2.207031 -1.796875 1.71875 -2.703125 C 1.238281 -3.617188 1 -4.660156 1 -5.828125 C 1 -6.972656 1.234375 -7.988281 1.703125 -8.875 C 2.179688 -9.769531 2.84375 -10.472656 3.6875 -10.984375 C 4.53125 -11.503906 5.503906 -11.765625 6.609375 -11.765625 C 7.898438 -11.765625 8.992188 -11.429688 9.890625 -10.765625 C 10.796875 -10.097656 11.378906 -9.207031 11.640625 -8.09375 L 9.75 -8.09375 C 9.519531 -8.75 9.125 -9.265625 8.5625 -9.640625 C 8 -10.015625 7.347656 -10.203125 6.609375 -10.203125 C 5.878906 -10.203125 5.222656 -10.015625 4.640625 -9.640625 C 4.066406 -9.265625 3.613281 -8.75 3.28125 -8.09375 C 2.945312 -7.4375 2.78125 -6.679688 2.78125 -5.828125 C 2.78125 -4.953125 2.945312 -4.179688 3.28125 -3.515625 C 3.613281 -2.847656 4.066406 -2.320312 4.640625 -1.9375 C 5.222656 -1.550781 5.878906 -1.359375 6.609375 -1.359375 C 7.410156 -1.359375 8.097656 -1.570312 8.671875 -2 C 9.253906 -2.4375 9.640625 -3.007812 9.828125 -3.71875 L 11.734375 -3.71875 C 11.484375 -2.488281 10.890625 -1.523438 9.953125 -0.828125 C 9.015625 -0.140625 7.898438 0.203125 6.609375 0.203125 Z M 6.609375 0.203125 "/></g></g></g><g fill="#13343b" fill-opacity="1"><g transform="translate(238.997897, 20.637435)"><g><path d="M 6.625 0.203125 C 5.519531 0.203125 4.539062 -0.0546875 3.6875 -0.578125 C 2.84375 -1.097656 2.179688 -1.804688 1.703125 -2.703125 C 1.234375 -3.609375 1 -4.625 1 -5.75 C 1 -6.789062 1.210938 -7.769531 1.640625 -8.6875 C 2.078125 -9.613281 2.710938 -10.359375 3.546875 -10.921875 C 4.390625 -11.484375 5.398438 -11.765625 6.578125 -11.765625 C 7.554688 -11.765625 8.46875 -11.546875 9.3125 -11.109375 C 10.15625 -10.679688 10.84375 -10.039062 11.375 -9.1875 C 11.90625 -8.34375 12.171875 -7.300781 12.171875 -6.0625 L 12.171875 -5.4375 L 2.765625 -5.4375 C 2.785156 -5.03125 2.859375 -4.644531 2.984375 -4.28125 C 3.273438 -3.394531 3.742188 -2.6875 4.390625 -2.15625 C 5.035156 -1.625 5.773438 -1.359375 6.609375 -1.359375 C 7.484375 -1.359375 8.210938 -1.59375 8.796875 -2.0625 C 9.378906 -2.53125 9.800781 -3.082031 10.0625 -3.71875 L 11.953125 -3.71875 C 11.722656 -3 11.367188 -2.34375 10.890625 -1.75 C 10.421875 -1.15625 9.832031 -0.679688 9.125 -0.328125 C 8.414062 0.0234375 7.582031 0.203125 6.625 0.203125 Z M 2.921875 -7 L 10.265625 -7 C 10.253906 -7.195312 10.226562 -7.390625 10.1875 -7.578125 C 10.144531 -7.773438 10.085938 -7.957031 10.015625 -8.125 C 9.703125 -8.800781 9.242188 -9.316406 8.640625 -9.671875 C 8.035156 -10.023438 7.363281 -10.203125 6.625 -10.203125 C 5.863281 -10.203125 5.191406 -10.019531 4.609375 -9.65625 C 4.035156 -9.289062 3.585938 -8.78125 3.265625 -8.125 C 3.179688 -7.945312 3.109375 -7.757812 3.046875 -7.5625 C 2.992188 -7.375 2.953125 -7.1875 2.921875 -7 Z M 2.921875 -7 "/></g></g></g><g fill="#13343b" fill-opacity="1"><g transform="translate(252.145289, 20.637435)"><g><path d="M 6.140625 0.203125 C 4.671875 0.203125 3.476562 -0.144531 2.5625 -0.84375 C 1.644531 -1.550781 1.09375 -2.507812 0.90625 -3.71875 L 2.765625 -3.71875 C 2.910156 -3.019531 3.253906 -2.453125 3.796875 -2.015625 C 4.347656 -1.578125 5.140625 -1.359375 6.171875 -1.359375 C 6.953125 -1.359375 7.585938 -1.507812 8.078125 -1.8125 C 8.578125 -2.113281 8.828125 -2.554688 8.828125 -3.140625 C 8.828125 -3.628906 8.671875 -4.003906 8.359375 -4.265625 C 8.054688 -4.523438 7.65625 -4.722656 7.15625 -4.859375 C 6.664062 -5.003906 6.132812 -5.132812 5.5625 -5.25 C 5.0625 -5.34375 4.5625 -5.453125 4.0625 -5.578125 C 3.570312 -5.703125 3.125 -5.875 2.71875 -6.09375 C 2.3125 -6.320312 1.984375 -6.625 1.734375 -7 C 1.492188 -7.375 1.375 -7.859375 1.375 -8.453125 C 1.375 -9.171875 1.554688 -9.773438 1.921875 -10.265625 C 2.296875 -10.765625 2.800781 -11.140625 3.4375 -11.390625 C 4.082031 -11.640625 4.796875 -11.765625 5.578125 -11.765625 C 6.835938 -11.765625 7.882812 -11.441406 8.71875 -10.796875 C 9.550781 -10.148438 10.066406 -9.25 10.265625 -8.09375 L 8.609375 -8.09375 C 8.429688 -8.832031 8.070312 -9.367188 7.53125 -9.703125 C 7 -10.035156 6.347656 -10.203125 5.578125 -10.203125 C 4.816406 -10.203125 4.222656 -10.054688 3.796875 -9.765625 C 3.367188 -9.484375 3.15625 -9.09375 3.15625 -8.59375 C 3.15625 -8.1875 3.296875 -7.867188 3.578125 -7.640625 C 3.867188 -7.410156 4.242188 -7.234375 4.703125 -7.109375 C 5.160156 -6.992188 5.65625 -6.882812 6.1875 -6.78125 C 6.707031 -6.675781 7.226562 -6.554688 7.75 -6.421875 C 8.269531 -6.296875 8.742188 -6.113281 9.171875 -5.875 C 9.609375 -5.632812 9.953125 -5.3125 10.203125 -4.90625 C 10.460938 -4.507812 10.59375 -3.984375 10.59375 -3.328125 C 10.59375 -2.265625 10.207031 -1.410156 9.4375 -0.765625 C 8.664062 -0.117188 7.566406 0.203125 6.140625 0.203125 Z M 6.140625 0.203125 "/></g></g></g></g></g></svg>